<svg width="19" height="20" viewBox="0 0 19 20" fill="none" xmlns="http://www.w3.org/2000/svg">
<symbol id="twitter">
<path d="M2.71429 0C1.21719 0 0 1.28125 0 2.85714V17.1429C0 18.7188 1.21719 20 2.71429 20H16.2857C17.7828 20 19 18.7188 19 17.1429V2.85714C19 1.28125 17.7828 0 16.2857 0H2.71429ZM15.3145 3.75L10.9123 9.04464L16.0906 16.25H12.0362L8.86384 11.8795L5.22924 16.25H3.21473L7.92232 10.5848L2.95603 3.75H7.11228L9.98348 7.74554L13.3 3.75H15.3145ZM13.7114 14.9821L6.5058 4.95089H5.30558L12.5917 14.9821H13.7071H13.7114Z" fill="white"/>
</symbol>
</svg>
