<svg width="20" height="16" viewBox="0 0 20 16" fill="none" xmlns="http://www.w3.org/2000/svg">
<symbol id="youtube">
<path fill-rule="evenodd" clip-rule="evenodd" d="M10 0C10.855 0 11.732 0.0220001 12.582 0.0580001L13.586 0.106L14.547 0.163L15.447 0.224L16.269 0.288C17.1612 0.355891 18.0008 0.736434 18.64 1.3626C19.2791 1.98877 19.6768 2.82039 19.763 3.711L19.803 4.136L19.878 5.046C19.948 5.989 20 7.017 20 8C20 8.983 19.948 10.011 19.878 10.954L19.803 11.864L19.763 12.289C19.6768 13.1798 19.2789 14.0115 18.6396 14.6377C18.0002 15.2639 17.1604 15.6443 16.268 15.712L15.448 15.775L14.548 15.837L13.586 15.894L12.582 15.942C11.7218 15.9793 10.861 15.9986 10 16C9.13902 15.9986 8.27817 15.9793 7.418 15.942L6.414 15.894L5.453 15.837L4.553 15.775L3.731 15.712C2.83881 15.6441 1.9992 15.2636 1.36004 14.6374C0.720888 14.0112 0.323191 13.1796 0.237 12.289L0.197 11.864L0.122 10.954C0.0458327 9.97112 0.00513964 8.98581 0 8C0 7.017 0.052 5.989 0.122 5.046L0.197 4.136L0.237 3.711C0.323157 2.82055 0.720712 1.98905 1.35966 1.36291C1.99861 0.736759 2.83799 0.356116 3.73 0.288L4.551 0.224L5.451 0.163L6.413 0.106L7.417 0.0580001C8.2775 0.0207272 9.13869 0.00138958 10 0ZM8 5.575V10.425C8 10.887 8.5 11.175 8.9 10.945L13.1 8.52C13.1914 8.46739 13.2673 8.39162 13.3201 8.30033C13.3729 8.20904 13.4007 8.10545 13.4007 8C13.4007 7.89455 13.3729 7.79096 13.3201 7.69967C13.2673 7.60837 13.1914 7.53261 13.1 7.48L8.9 5.056C8.80876 5.00332 8.70526 4.9756 8.59991 4.97562C8.49455 4.97563 8.39106 5.00339 8.29983 5.0561C8.20861 5.1088 8.13287 5.1846 8.08024 5.27587C8.02761 5.36713 7.99993 5.47065 8 5.576V5.575Z" fill="white"/>
</symbol>
<symbol id="social">
<path d="M10 0C4.48 0 0 4.48 0 10C0 15.52 4.48 20 10 20C15.52 20 20 15.52 20 10C20 4.48 15.52 0 10 0ZM14.64 6.8C14.49 8.38 13.84 12.22 13.51 13.99C13.37 14.74 13.09 14.99 12.83 15.02C12.25 15.07 11.81 14.64 11.25 14.27C10.37 13.69 9.87 13.33 9.02 12.77C8.03 12.12 8.67 11.76 9.24 11.18C9.39 11.03 11.95 8.7 12 8.49C12.0069 8.45819 12.006 8.42517 11.9973 8.3938C11.9886 8.36244 11.9724 8.33367 11.95 8.31C11.89 8.26 11.81 8.28 11.74 8.29C11.65 8.31 10.25 9.24 7.52 11.08C7.12 11.35 6.76 11.49 6.44 11.48C6.08 11.47 5.4 11.28 4.89 11.11C4.26 10.91 3.77 10.8 3.81 10.45C3.83 10.27 4.08 10.09 4.55 9.9C7.47 8.63 9.41 7.79 10.38 7.39C13.16 6.23 13.73 6.03 14.11 6.03C14.19 6.03 14.38 6.05 14.5 6.15C14.6 6.23 14.63 6.34 14.64 6.42C14.63 6.48 14.65 6.66 14.64 6.8Z" fill="white"/>
</symbol>
</svg>
