<svg width="36" height="36" viewBox="0 0 36 36" fill="none" xmlns="http://www.w3.org/2000/svg">
<rect width="36" height="36" rx="10" fill="#006DE3"/>
<path fill-rule="evenodd" clip-rule="evenodd" d="M16.2755 8.25503C16.359 8.24997 16.4474 8.24998 16.5609 8.25H19.4395C19.553 8.24998 19.6413 8.24997 19.7249 8.25503C20.7853 8.31926 21.7139 8.98855 22.1102 9.97426C22.1414 10.0519 22.1694 10.1358 22.2052 10.2435L22.2083 10.2525C22.2916 10.4769 22.4829 10.7321 22.7506 10.9359C22.7804 10.9586 22.8104 10.98 22.8403 11.0002C24.9942 11.0027 26.1185 11.0424 26.8934 11.673C27.0524 11.8023 27.1977 11.9476 27.327 12.1066C28 12.9337 28 14.1588 28 16.6089C28 17.2307 28 17.5415 27.8492 17.784C27.8199 17.8312 27.7866 17.8759 27.7498 17.9176C27.5609 18.1317 27.2631 18.2211 26.6676 18.3997L22 19.8V19C22 17.8954 21.1046 17 20 17H16C14.8954 17 14 17.8954 14 19V19.8L9.3324 18.3997C8.7369 18.2211 8.43915 18.1317 8.25021 17.9176C8.21341 17.8759 8.18015 17.8312 8.15078 17.784C8 17.5415 8 17.2307 8 16.6089C8 14.1588 8 12.9337 8.67298 12.1066C8.80233 11.9476 8.94763 11.8023 9.10659 11.673C9.88153 11.0424 11.0058 11.0027 13.1597 11.0002C13.1897 10.98 13.2196 10.9586 13.2494 10.9359C13.5173 10.732 13.7085 10.4768 13.7919 10.2525C13.8298 10.1386 13.8582 10.0537 13.8902 9.97425C14.2864 8.98855 15.215 8.31926 16.2755 8.25503ZM20.8187 10.8181C20.8429 10.8797 20.8695 10.9403 20.8984 11H15.1017C15.1306 10.9404 15.1572 10.8799 15.1814 10.8184L15.1829 10.8149L15.1871 10.805L15.1919 10.7929L15.1965 10.7809L15.2002 10.771L15.2019 10.766L15.2062 10.7537L15.21 10.7424L15.2121 10.7362L15.2148 10.7278L15.2171 10.7208L15.2189 10.715C15.2577 10.5987 15.2704 10.5625 15.2819 10.5338C15.462 10.0857 15.8841 9.78148 16.3661 9.75229C16.3984 9.75034 16.4379 9.75 16.5813 9.75H19.419C19.5624 9.75 19.602 9.75034 19.6342 9.75229C20.1162 9.78148 20.5383 10.0857 20.7185 10.5338C20.7298 10.562 20.7419 10.597 20.7813 10.715L20.783 10.7207L20.7853 10.7278L20.788 10.7361L20.7901 10.7424L20.7939 10.7537L20.7982 10.7659L20.7999 10.7709L20.8036 10.7808L20.8081 10.7927L20.813 10.8047L20.8171 10.8145L20.8187 10.8181ZM20 18.5H16C15.7239 18.5 15.5 18.7239 15.5 19V21.1615C15.5 21.3659 15.6245 21.5498 15.8143 21.6257L16.5144 21.9058C17.4681 22.2872 18.5319 22.2872 19.4856 21.9058L20.1857 21.6257C20.3755 21.5498 20.5 21.3659 20.5 21.1615V19C20.5 18.7239 20.2761 18.5 20 18.5ZM14.0127 21.3691L9.00781 19.8677C9.0379 22.9822 9.21984 25.8505 10.3199 26.8283C11.6379 27.9998 13.7592 27.9998 18.0018 27.9998C22.2445 27.9998 24.3658 27.9998 25.6838 26.8283C26.7839 25.8505 26.9658 22.9822 26.9959 19.8677L21.9912 21.3691C21.915 22.1018 21.4392 22.7407 20.7447 23.0184L20.0446 23.2985C18.7333 23.823 17.2706 23.823 15.9593 23.2985L15.2592 23.0184C14.5648 22.7407 14.089 22.1018 14.0127 21.3691Z" fill="white"/>
</svg>
