<svg width="36" height="36" viewBox="0 0 36 36" fill="none" xmlns="http://www.w3.org/2000/svg">
<rect width="36" height="36" rx="10" fill="#006DE3"/>
<path d="M20.2172 9.49965C18.7962 8.83345 17.2037 8.83345 15.7827 9.49965L9.0916 12.6366C8.0156 13.141 7.73507 14.5635 8.25 15.5467L8.25 20.5C8.25 20.9142 8.58579 21.25 9 21.25C9.41421 21.25 9.75 20.9142 9.75 20.5V16.672L15.7828 19.5003C17.2038 20.1665 18.7963 20.1665 20.2173 19.5003L26.9084 16.3634C28.3639 15.6811 28.3639 13.319 26.9084 12.6366L20.2172 9.49965Z" fill="white"/>
<path d="M11 18.9147V22.6254C11 23.6334 11.5035 24.5772 12.3853 25.0656C13.8537 25.8787 16.204 27 18 27C19.796 27 22.1463 25.8787 23.6147 25.0656C24.4965 24.5772 25 23.6334 25 22.6254V18.9148L20.854 20.8585C19.0296 21.7138 16.9705 21.7138 15.1461 20.8585L11 18.9147Z" fill="white"/>
</svg>
