<svg width="36" height="36" viewBox="0 0 36 36" fill="none" xmlns="http://www.w3.org/2000/svg">
<rect width="36" height="36" rx="10" fill="#006DE3"/>
<path fill-rule="evenodd" clip-rule="evenodd" d="M27.7883 27.7883C28.0706 27.506 28.0706 27.0483 27.7883 26.7659L24.1224 23.1001C25.4885 21.5006 26.3133 19.4249 26.3133 17.1566C26.3133 12.0996 22.2137 8 17.1566 8C12.0996 8 8 12.0996 8 17.1566C8 22.2137 12.0996 26.3133 17.1566 26.3133C19.4249 26.3133 21.5006 25.4885 23.1001 24.1224L26.7659 27.7883C27.0483 28.0706 27.506 28.0706 27.7883 27.7883ZM17.1566 14.0241C17.5559 14.0241 17.8795 14.3477 17.8795 14.747V16.4337H19.5663C19.9655 16.4337 20.2892 16.7574 20.2892 17.1566C20.2892 17.5559 19.9655 17.8795 19.5663 17.8795H17.8795V19.5663C17.8795 19.9655 17.5559 20.2892 17.1566 20.2892C16.7574 20.2892 16.4337 19.9655 16.4337 19.5663V17.8795H14.747C14.3477 17.8795 14.0241 17.5559 14.0241 17.1566C14.0241 16.7574 14.3477 16.4337 14.747 16.4337H16.4337V14.747C16.4337 14.3477 16.7574 14.0241 17.1566 14.0241Z" fill="white"/>
</svg>
