<svg width="36" height="36" viewBox="0 0 36 36" fill="none" xmlns="http://www.w3.org/2000/svg">
<rect width="36" height="36" rx="10" fill="#006DE3"/>
<path fill-rule="evenodd" clip-rule="evenodd" d="M8.77409 18.4814C9.07033 18.778 9.07004 19.2586 8.77343 19.5548L8.61779 19.7103C8.48483 19.8431 8.48483 20.058 8.61779 20.1908C8.75125 20.3241 8.96801 20.3241 9.10147 20.1908L10.8136 18.4807C11.1102 18.1845 11.5908 18.1848 11.887 18.4814C12.1833 18.778 12.183 19.2586 11.8864 19.5548L10.1743 21.2648C9.4481 21.9901 8.27116 21.9901 7.545 21.2648C6.81833 20.5391 6.81833 19.362 7.545 18.6362L7.70065 18.4807C7.99725 18.1845 8.47784 18.1848 8.77409 18.4814ZM13.6867 19.4896C13.9831 19.7861 13.9831 20.2667 13.6867 20.5631L11.5442 22.7055C11.2478 23.0019 10.7672 23.0019 10.4708 22.7055C10.1744 22.409 10.1744 21.9285 10.4708 21.632L12.6132 19.4896C12.9096 19.1932 13.3902 19.1932 13.6867 19.4896ZM16.4958 22.2953C16.7922 22.5918 16.7922 23.0724 16.4958 23.3688L14.368 25.4965C14.0716 25.7929 13.591 25.7929 13.2946 25.4965C12.9982 25.2001 12.9982 24.7195 13.2946 24.4231L15.4224 22.2953C15.7188 21.9989 16.1994 21.9989 16.4958 22.2953ZM13.2972 22.696C13.5903 22.9957 13.5849 23.4762 13.2852 23.7693L11.5551 25.4614C11.2554 25.7545 10.7748 25.7491 10.4817 25.4494C10.1886 25.1497 10.1939 24.6692 10.4937 24.3761L12.2238 22.684C12.5235 22.3909 13.0041 22.3963 13.2972 22.696ZM17.4811 24.118C17.7774 24.4146 17.7771 24.8952 17.4805 25.1915L15.7683 26.9015C15.6354 27.0343 15.6354 27.2492 15.7683 27.382C15.9018 27.5153 16.1186 27.5153 16.252 27.382L16.4077 27.2265C16.7043 26.9303 17.1849 26.9306 17.4811 27.2272C17.7774 27.5238 17.7771 28.0044 17.4805 28.3006L17.3248 28.4561C16.5987 29.1813 15.4217 29.1813 14.6956 28.4561C13.9689 27.7303 13.9689 26.5532 14.6956 25.8274L16.4077 24.1174C16.7043 23.8211 17.1849 23.8214 17.4811 24.118Z" fill="white"/>
<path d="M16.8463 11.4091L14.6586 13.5902C14.2565 13.9911 13.8876 14.3589 13.5963 14.6913C13.4092 14.9048 13.2223 15.1385 13.0639 15.3967L13.0426 15.3754C13.0022 15.3351 12.9819 15.3149 12.9616 15.2952C12.5813 14.9262 12.1341 14.6329 11.6437 14.4308C11.6175 14.42 11.5909 14.4095 11.5377 14.3884L11.212 14.2594C10.7707 14.0845 10.6531 13.5164 10.9889 13.1817C11.9525 12.221 13.1095 11.0675 13.6679 10.8358C14.1603 10.6315 14.6923 10.5635 15.2053 10.6394C15.6754 10.7088 16.1201 10.9503 16.8463 11.4091Z" fill="white"/>
<path d="M20.5818 22.8932C20.7581 23.0722 20.8752 23.1985 20.981 23.3336C21.1207 23.5118 21.2456 23.7011 21.3544 23.8995C21.4769 24.1229 21.5721 24.3615 21.7623 24.8388C21.9172 25.2273 22.4317 25.33 22.7306 25.032L22.8029 24.9599C23.7665 23.9992 24.9235 22.8457 25.1558 22.289C25.3608 21.7981 25.429 21.2677 25.3529 20.7562C25.2832 20.2876 25.0411 19.8443 24.581 19.1204L22.386 21.3088C21.9748 21.7188 21.5977 22.0948 21.2567 22.3893C21.0523 22.5658 20.8287 22.7422 20.5818 22.8932Z" fill="white"/>
<path fill-rule="evenodd" clip-rule="evenodd" d="M21.5023 20.3674L26.5319 15.3529C27.2563 14.6307 27.6185 14.2696 27.8092 13.8105C28 13.3513 28 12.8407 28 11.8194V11.3315C28 9.76099 28 8.97576 27.5106 8.48788C27.0213 8 26.2337 8 24.6585 8H24.1691C23.1447 8 22.6325 8 22.172 8.19019C21.7114 8.38039 21.3493 8.74147 20.6249 9.46364L15.5952 14.4782C14.7488 15.322 14.224 15.8453 14.0208 16.3506C13.9566 16.5103 13.9245 16.6682 13.9245 16.8339C13.9245 17.5238 14.4814 18.0791 15.5952 19.1896L15.7449 19.3388L17.4985 17.5591C17.7486 17.3053 18.1571 17.3022 18.4109 17.5523C18.6647 17.8024 18.6678 18.2109 18.4177 18.4647L16.6587 20.2499L16.7766 20.3674C17.8905 21.4779 18.4474 22.0331 19.1394 22.0331C19.2924 22.0331 19.4387 22.006 19.5858 21.9518C20.1048 21.7607 20.6345 21.2325 21.5023 20.3674ZM23.8652 14.4785C23.2127 15.129 22.1548 15.129 21.5024 14.4785C20.8499 13.828 20.8499 12.7733 21.5024 12.1228C22.1548 11.4723 23.2127 11.4723 23.8652 12.1228C24.5177 12.7733 24.5177 13.828 23.8652 14.4785Z" fill="white"/>
</svg>
