<svg width="51" height="50" viewBox="0 0 51 50" fill="none" xmlns="http://www.w3.org/2000/svg">
<path fill-rule="evenodd" clip-rule="evenodd" d="M7.71894 7.21796C4.66797 10.2689 4.66797 15.1794 4.66797 25.0003C4.66797 34.8213 4.66797 39.7317 7.71894 42.7827C10.7699 45.8337 15.6804 45.8337 25.5013 45.8337C35.3222 45.8337 40.2327 45.8337 43.2837 42.7827C46.3346 39.7317 46.3346 34.8213 46.3346 25.0003C46.3346 15.1794 46.3346 10.2689 43.2837 7.21796C40.2327 4.16699 35.3222 4.16699 25.5013 4.16699C15.6804 4.16699 10.7699 4.16699 7.71894 7.21796ZM35.918 25.5212C36.7809 25.5212 37.4805 26.2207 37.4805 27.0837V37.5003C37.4805 38.3633 36.7809 39.0628 35.918 39.0628C35.055 39.0628 34.3555 38.3633 34.3555 37.5003V27.0837C34.3555 26.2207 35.055 25.5212 35.918 25.5212ZM27.0638 12.5003C27.0638 11.6374 26.3642 10.9378 25.5013 10.9378C24.6384 10.9378 23.9388 11.6374 23.9388 12.5003V37.5003C23.9388 38.3633 24.6384 39.0628 25.5013 39.0628C26.3642 39.0628 27.0638 38.3633 27.0638 37.5003V12.5003ZM15.0846 17.1878C15.9476 17.1878 16.6471 17.8874 16.6471 18.7503V37.5003C16.6471 38.3633 15.9476 39.0628 15.0846 39.0628C14.2217 39.0628 13.5221 38.3633 13.5221 37.5003V18.7503C13.5221 17.8874 14.2217 17.1878 15.0846 17.1878Z" fill="#006DE3"/>
</svg>
