<svg width="51" height="50" viewBox="0 0 51 50" fill="none" xmlns="http://www.w3.org/2000/svg">
<path d="M23.9388 16.3492C21.989 16.8824 20.8138 18.3785 20.8138 19.792C20.8138 21.2054 21.989 22.7016 23.9388 23.2347V16.3492Z" fill="#006DE3"/>
<path d="M27.0638 26.7659V33.6514C29.0136 33.1183 30.1888 31.6221 30.1888 30.2087C30.1888 28.7952 29.0136 27.2991 27.0638 26.7659Z" fill="#006DE3"/>
<path fill-rule="evenodd" clip-rule="evenodd" d="M46.3346 25.0003C46.3346 36.5063 37.0072 45.8337 25.5013 45.8337C13.9954 45.8337 4.66797 36.5063 4.66797 25.0003C4.66797 13.4944 13.9954 4.16699 25.5013 4.16699C37.0072 4.16699 46.3346 13.4944 46.3346 25.0003ZM25.5013 10.9378C26.3642 10.9378 27.0638 11.6374 27.0638 12.5003V13.1602C30.4605 13.7684 33.3138 16.3203 33.3138 19.792C33.3138 20.6549 32.6142 21.3545 31.7513 21.3545C30.8884 21.3545 30.1888 20.6549 30.1888 19.792C30.1888 18.3785 29.0136 16.8824 27.0638 16.3492V23.5769C30.4605 24.1851 33.3138 26.737 33.3138 30.2087C33.3138 33.6803 30.4605 36.2323 27.0638 36.8405V37.5003C27.0638 38.3633 26.3642 39.0628 25.5013 39.0628C24.6384 39.0628 23.9388 38.3633 23.9388 37.5003V36.8405C20.5421 36.2323 17.6888 33.6803 17.6888 30.2087C17.6888 29.3457 18.3884 28.6462 19.2513 28.6462C20.1142 28.6462 20.8138 29.3457 20.8138 30.2087C20.8138 31.6221 21.989 33.1183 23.9388 33.6514V26.4238C20.5421 25.8156 17.6888 23.2636 17.6888 19.792C17.6888 16.3203 20.5421 13.7684 23.9388 13.1602V12.5003C23.9388 11.6374 24.6384 10.9378 25.5013 10.9378Z" fill="#006DE3"/>
</svg>
