<svg width="51" height="50" viewBox="0 0 51 50" fill="none" xmlns="http://www.w3.org/2000/svg">
<path fill-rule="evenodd" clip-rule="evenodd" d="M25.4987 45.8333C34.7034 45.8333 42.1654 38.3714 42.1654 29.1667C42.1654 19.9619 34.7034 12.5 25.4987 12.5C16.294 12.5 8.83203 19.9619 8.83203 29.1667C8.83203 38.3714 16.294 45.8333 25.4987 45.8333ZM25.4987 22.9167C24.9069 22.9167 24.5111 23.6267 23.7194 25.0469L23.5146 25.4143C23.2897 25.8179 23.1772 26.0197 23.0018 26.1528C22.8264 26.2859 22.608 26.3354 22.1711 26.4342L21.7734 26.5242C20.2361 26.872 19.4675 27.0459 19.2846 27.634C19.1017 28.2221 19.6257 28.8348 20.6738 30.0604L20.9449 30.3774C21.2427 30.7257 21.3916 30.8998 21.4586 31.1152C21.5256 31.3307 21.5031 31.563 21.4581 32.0276L21.4171 32.4507C21.2586 34.0858 21.1794 34.9034 21.6582 35.2668C22.1369 35.6302 22.8566 35.2989 24.296 34.6361L24.6684 34.4647C25.0774 34.2764 25.2819 34.1822 25.4987 34.1822C25.7155 34.1822 25.92 34.2764 26.329 34.4647L26.7014 34.6361C28.1408 35.2989 28.8605 35.6302 29.3392 35.2668C29.818 34.9034 29.7388 34.0858 29.5803 32.4507L29.5393 32.0276C29.4943 31.563 29.4718 31.3307 29.5388 31.1152C29.6058 30.8998 29.7547 30.7257 30.0525 30.3774L30.3236 30.0604C31.3717 28.8348 31.8957 28.2221 31.7128 27.634C31.5299 27.0459 30.7613 26.872 29.224 26.5242L28.8263 26.4342C28.3894 26.3354 28.171 26.2859 27.9956 26.1528C27.8202 26.0197 27.7077 25.8179 27.4828 25.4143L27.278 25.0469C26.4863 23.6267 26.0905 22.9167 25.4987 22.9167Z" fill="#006DE3"/>
<path d="M23.4154 4.16699H27.582C31.5104 4.16699 33.4746 4.16699 34.695 5.38738C35.8981 6.59054 35.9151 8.51665 35.9154 12.3351C32.8897 10.4587 29.3207 9.37533 25.4987 9.37533C21.6767 9.37533 18.1077 10.4587 15.082 12.3351C15.0823 8.51665 15.0993 6.59054 16.3024 5.38738C17.5228 4.16699 19.487 4.16699 23.4154 4.16699Z" fill="#006DE3"/>
</svg>
