<svg width="51" height="50" viewBox="0 0 51 50" fill="none" xmlns="http://www.w3.org/2000/svg">
<path d="M13.464 9.58547C14.3902 8.96662 15.3626 8.42988 16.3703 7.97862C19.2283 6.69868 20.6574 6.0587 22.5585 7.29038C24.4596 8.52206 24.4596 10.5425 24.4596 14.5833V17.7083C24.4596 21.6367 24.4596 23.6009 25.68 24.8212C26.9004 26.0416 28.8646 26.0416 32.793 26.0416H35.918C39.9588 26.0416 41.9792 26.0416 43.2109 27.9428C44.4426 29.8439 43.8026 31.2729 42.5227 34.131C42.0714 35.1386 41.5347 36.1111 40.9158 37.0373C38.7411 40.292 35.65 42.8288 32.0336 44.3267C28.4171 45.8247 24.4377 46.2167 20.5985 45.453C16.7593 44.6893 13.2327 42.8044 10.4648 40.0365C7.69691 37.2685 5.81194 33.742 5.04827 29.9028C4.2846 26.0636 4.67654 22.0841 6.17453 18.4677C7.67251 14.8512 10.2093 11.7602 13.464 9.58547Z" fill="#006DE3"/>
<path d="M45.1805 14.727C43.4893 10.4339 40.0674 7.01198 35.7742 5.32071C32.5627 4.05552 29.668 6.96484 29.668 10.4166V18.75C29.668 19.9005 30.6007 20.8333 31.7513 20.8333H40.0846C43.5364 20.8333 46.4457 17.9386 45.1805 14.727Z" fill="#006DE3"/>
</svg>
